<svg width="512" height="512" viewBox="0 0 512 512" fill="none" xmlns="http://www.w3.org/2000/svg">
  <rect width="512" height="512" rx="128" fill="#F7F4EE"/>
  <path d="M122 292C122 204 179 136 260 136C338 136 390 190 390 258C390 336 331 376 261 376C181 376 122 343 122 292Z" fill="#FFC857"/>
  <path d="M176 260C176 210 210 176 260 176C307 176 336 208 336 252C336 300 302 332 256 332C207 332 176 300 176 260Z" fill="#202020"/>
  <path d="M229 271L254 206H284L265 254H298L248 318L262 271H229Z" fill="white"/>
</svg>
